<svg t="1561185691701" class="icon" viewBox="0 0 1024 1024" version="1.1" xmlns="http://www.w3.org/2000/svg" p-id="1930" xmlns:xlink="http://www.w3.org/1999/xlink" width="200" height="200"><defs><style type="text/css"></style></defs><path d="M175.6175 490.325995C169.328168 457.669848 187.228574 378.085609 198.355854 345.913257c15.481432-45.960503 34.349428-73.778702 60.716243-105.951053 4.354153-5.321742 6.531229-6.289332 10.643485-10.401588A160.619862 160.619862 0 0 1 280.600964 219.400926c8.224511-6.773127 13.788151-12.094869 23.705943-18.626098 35.558915-23.705943 39.913068-22.254559 70.392139-34.833224 17.658509-7.256921 20.077483-5.805537 33.139941-8.708305 42.090145-10.15969 86.357366-14.030048 130.624587-11.611075l35.07512 3.144666c12.094869 2.418974 21.28697 3.870358 33.139942 5.805537 41.848247 6.531229 110.305206 39.671171 138.123405 70.634036 26.608712 29.027686 48.863271 58.539167 63.619012 103.048285 12.094869 36.284607 26.608712 99.177927 20.803175 144.896532-28.060096 2.902769-14.75574-14.030048-28.060097-69.182651a253.024662 253.024662 0 0 0-19.593688-55.636398 308.66106 308.66106 0 0 0-160.377964-145.380327 251.089483 251.089483 0 0 0-263.668148 33.623736c-6.047435 4.837948-14.030048 11.369177-19.593688 16.932817-6.531229 6.531229-12.094869 14.030048-18.384201 20.561277-8.224511 8.466408-65.312293 17.900406-99.661721 89.502032-10.643485 22.254559-12.578664 36.526505-15.965227 59.990551l-11.611075 63.860909c-3.386563 3.386563-10.885382 3.870358-16.449022 2.902769z m353.653973 462.507795a219.159029 219.159029 0 0 0 140.300482-58.055372c8.950203-8.708306 16.932817-16.690919 25.399225-25.641122 7.256921-7.982614 59.990551-67.973165 55.878296-77.165265-2.418974-5.321742-3.144666-1.451384-6.047435 0-22.980251 13.304356-41.364452 22.254559-71.11783 29.51148-24.431636 6.047435-17.900406 1.935179-32.41425 16.932817-39.429273 40.63876-109.337617 73.778702-177.552679 52.007937a174.408013 174.408013 0 0 1-64.102806-35.800812c-4.837948-4.59605-8.950203-6.773127-13.546253-11.12728-44.025324-38.219786-85.631673-111.272796-102.564491-169.811962-5.805537-20.31938-18.142304-59.748654-12.820561-81.277521 8.950203-34.833223 30.47907-58.055372 44.751016-78.132855l34.349428-39.429273a566.039875 566.039875 0 0 1 49.830861-47.653784c21.28697 19.351791 32.656147 29.995275 63.619012 44.267221 55.636398 25.399225 123.609563 31.44666 185.535292 31.930454 18.142304 0.241897 36.284607 0.483795 54.426911 0.241898l40.63876-0.241898c4.59605 0 8.466408 0.241897 10.159691 2.418974 7.498819 12.094869 0 92.888595-2.660872 110.547104-4.837948 30.47907-34.107531 139.090995-62.893319 149.976377-25.641123 9.917793-113.69177 28.543891-124.81905 22.496457l-16.207124-17.174715a67.973165 67.973165 0 0 0-23.947841-9.675895 66.52178 66.52178 0 0 0-53.217424 12.094869c-43.541529 35.800813 18.384201 91.679108 77.407162 58.055372 16.690919-9.192101 0.96759-11.852972 27.334404-12.820561a469.280922 469.280922 0 0 0 73.05301-9.433998c34.349428-7.256921 61.441935-16.932817 89.502032-33.381839 9.433998-5.321742 10.643485 4.354153 44.751015 4.354153 64.586601 0 109.337617-54.185014 123.367665-115.143154 6.047435-25.157328 7.982614-87.80875 2.177077-112.240386-7.982614-33.139941-23.705943-55.878295-48.379477-68.698856a425.981291 425.981291 0 0 0-16.207124-147.557404c-24.189738-84.664084-73.05301-145.13843-149.250685-184.325805-58.539167-30.237173-119.497307-37.0103-183.842011-37.977889a462.749693 462.749693 0 0 0-133.043561 18.384201c-99.903619 27.092507-170.05386 102.806388-206.580364 195.453085-18.867996 47.653784-19.835585 79.826136-24.915431 126.512331-1.935179 16.449022 1.209487 32.656147 0.725692 45.960503-5.56364 5.321742-13.546253 8.466408-19.109893 14.513843a114.901257 114.901257 0 0 0-14.513843 18.626098c-37.252197 60.232448-25.641123 199.565341 50.314656 246.009638 21.770764 13.546253 52.491732 21.28697 80.309931 16.449022 36.284607-6.047435 16.449022-21.28697 46.928092 22.980252 15.239535 22.254559 50.072758 63.860909 68.456959 79.100444 26.608712 21.770764 95.065671 53.943116 142.719456 53.943116h28.060096z" fill="" p-id="1931"></path></svg>